<svg width="100" height="83" viewBox="0 0 100 83" fill="none" xmlns="http://www.w3.org/2000/svg">
<path d="M59.082 31.8164H9.08203C4.08203 31.8164 0 35.8984 0 40.918L0.000221729 72.3358C0.000221729 77.3358 4.08225 81.4179 9.08225 81.4179H59.0823C64.1018 81.4179 68.1643 77.3358 68.1643 72.3358L68.1641 40.918C68.1836 35.8984 64.1016 31.8164 59.082 31.8164ZM72.7344 45.6836V68.418L100 82.0508V32.0508L72.7344 45.6836ZM13.6328 27.2656C21.1719 27.2656 27.2656 21.1523 27.2656 13.6328C27.2656 6.11328 21.1719 0 13.6328 0C6.11328 0 0 6.11328 0 13.6328C0 21.1523 6.11328 27.2656 13.6328 27.2656ZM54.5508 0C47.0117 0 40.918 6.11328 40.918 13.6328C40.918 21.1523 47.0312 27.2656 54.5508 27.2656C62.0898 27.2656 68.1836 21.1523 68.1836 13.6328C68.1836 6.11328 62.0703 0 54.5508 0Z" fill="#A18DB5"/>
</svg>
